<mxfile host="app.diagrams.net" modified="2023-04-28T15:24:16.162Z" agent="Mozilla/5.0 (Windows NT 10.0; Win64; x64) AppleWebKit/537.36 (KHTML, like Gecko) Chrome/112.0.0.0 Safari/537.36" etag="GudCRyE6mRayFDqv9K8o" version="21.2.1" type="device">
  <diagram name="Page-1" id="_EIf3MN4KcUSfR8OH9MD">
    <mxGraphModel dx="618" dy="339" grid="1" gridSize="10" guides="1" tooltips="1" connect="1" arrows="1" fold="1" page="1" pageScale="1" pageWidth="827" pageHeight="1169" math="0" shadow="0">
      <root>
        <mxCell id="0" />
        <mxCell id="1" parent="0" />
        <mxCell id="Hui5fMC-4kC4WE7lra_V-2" value="Stockage et distribution d&#39;eau" style="swimlane;whiteSpace=wrap;html=1;" vertex="1" parent="1">
          <mxGeometry x="487" y="60" width="340" height="140" as="geometry" />
        </mxCell>
        <mxCell id="Hui5fMC-4kC4WE7lra_V-3" value="Le système doit être en mesure de stocker de l&#39;eau&lt;br&gt;de pluie dans un réservoir puis de retourner à l&#39;utilisateur&lt;br&gt;des données concernant l&#39;eau stockée, puis lorsque cela &lt;br&gt;est nécessaire de la redistribuer à l&#39;utilisateur&amp;nbsp;" style="text;html=1;align=center;verticalAlign=middle;resizable=0;points=[];autosize=1;strokeColor=none;fillColor=none;" vertex="1" parent="Hui5fMC-4kC4WE7lra_V-2">
          <mxGeometry x="5" y="50" width="330" height="70" as="geometry" />
        </mxCell>
        <mxCell id="Hui5fMC-4kC4WE7lra_V-17" value="Id= &quot;1&quot;" style="text;html=1;align=center;verticalAlign=middle;resizable=0;points=[];autosize=1;strokeColor=none;fillColor=none;" vertex="1" parent="Hui5fMC-4kC4WE7lra_V-2">
          <mxGeometry y="20" width="60" height="30" as="geometry" />
        </mxCell>
        <mxCell id="Hui5fMC-4kC4WE7lra_V-7" value="Contenance" style="swimlane;whiteSpace=wrap;html=1;" vertex="1" parent="1">
          <mxGeometry x="310" y="300" width="200" height="200" as="geometry" />
        </mxCell>
        <mxCell id="Hui5fMC-4kC4WE7lra_V-8" value="Le réservoir doit pouvoir contenir&lt;br style=&quot;border-color: var(--border-color);&quot;&gt;1000 L à l&#39;échelle 1/1000.&amp;nbsp;" style="text;html=1;align=center;verticalAlign=middle;resizable=0;points=[];autosize=1;strokeColor=none;fillColor=none;" vertex="1" parent="Hui5fMC-4kC4WE7lra_V-7">
          <mxGeometry y="80" width="200" height="40" as="geometry" />
        </mxCell>
        <mxCell id="Hui5fMC-4kC4WE7lra_V-18" value="Id= &quot;1.2&quot;" style="text;html=1;align=center;verticalAlign=middle;resizable=0;points=[];autosize=1;strokeColor=none;fillColor=none;" vertex="1" parent="Hui5fMC-4kC4WE7lra_V-7">
          <mxGeometry y="30" width="70" height="30" as="geometry" />
        </mxCell>
        <mxCell id="Hui5fMC-4kC4WE7lra_V-9" value="Qualité d&#39;eau" style="swimlane;whiteSpace=wrap;html=1;" vertex="1" parent="1">
          <mxGeometry x="30" y="250" width="240" height="200" as="geometry" />
        </mxCell>
        <mxCell id="Hui5fMC-4kC4WE7lra_V-10" value="L&#39;eau doit être de qualité suffisante pour&lt;br&gt;une utilisation dans des sanitaires. Cette&lt;br&gt;qualité sera assurée par des filtres et sera&amp;nbsp;&lt;br&gt;vérifiée par un capteur de turbidité" style="text;html=1;align=center;verticalAlign=middle;resizable=0;points=[];autosize=1;strokeColor=none;fillColor=none;" vertex="1" parent="Hui5fMC-4kC4WE7lra_V-9">
          <mxGeometry x="-5" y="65" width="250" height="70" as="geometry" />
        </mxCell>
        <mxCell id="Hui5fMC-4kC4WE7lra_V-19" value="Id= &quot;1.1&quot;" style="text;html=1;align=center;verticalAlign=middle;resizable=0;points=[];autosize=1;strokeColor=none;fillColor=none;" vertex="1" parent="Hui5fMC-4kC4WE7lra_V-9">
          <mxGeometry x="10" y="33" width="70" height="30" as="geometry" />
        </mxCell>
        <mxCell id="Hui5fMC-4kC4WE7lra_V-11" value="Communication" style="swimlane;whiteSpace=wrap;html=1;" vertex="1" parent="1">
          <mxGeometry x="530" y="320" width="320" height="200" as="geometry" />
        </mxCell>
        <mxCell id="Hui5fMC-4kC4WE7lra_V-12" value="Le réservoir et le/les filtres doivent être accessibles&amp;nbsp;&lt;br&gt;afin d&#39;assurer&amp;nbsp; le nettoyage de ces derniers&lt;br&gt;si nécessaire. De plus, le réservoir sera placé en hauteur." style="text;html=1;align=center;verticalAlign=middle;resizable=0;points=[];autosize=1;strokeColor=none;fillColor=none;" vertex="1" parent="Hui5fMC-4kC4WE7lra_V-11">
          <mxGeometry x="-5" y="70" width="330" height="60" as="geometry" />
        </mxCell>
        <mxCell id="Hui5fMC-4kC4WE7lra_V-20" value="Id = &quot;1.3" style="text;html=1;align=center;verticalAlign=middle;resizable=0;points=[];autosize=1;strokeColor=none;fillColor=none;" vertex="1" parent="Hui5fMC-4kC4WE7lra_V-11">
          <mxGeometry y="30" width="70" height="30" as="geometry" />
        </mxCell>
        <mxCell id="Hui5fMC-4kC4WE7lra_V-13" value="Communication" style="swimlane;whiteSpace=wrap;html=1;" vertex="1" parent="1">
          <mxGeometry x="870" y="300" width="250" height="200" as="geometry" />
        </mxCell>
        <mxCell id="Hui5fMC-4kC4WE7lra_V-14" value="Les données en lien avec la quantité d&#39;eau&lt;br&gt;restant/ la qualité de l&#39;eau... doivent pouvoir&lt;br&gt;être transmises par le biais d&#39;une application&lt;br&gt;mobile." style="text;html=1;align=center;verticalAlign=middle;resizable=0;points=[];autosize=1;strokeColor=none;fillColor=none;" vertex="1" parent="Hui5fMC-4kC4WE7lra_V-13">
          <mxGeometry x="-5" y="70" width="260" height="70" as="geometry" />
        </mxCell>
        <mxCell id="Hui5fMC-4kC4WE7lra_V-21" value="Id = &quot;1.4&quot;" style="text;html=1;align=center;verticalAlign=middle;resizable=0;points=[];autosize=1;strokeColor=none;fillColor=none;" vertex="1" parent="Hui5fMC-4kC4WE7lra_V-13">
          <mxGeometry y="30" width="70" height="30" as="geometry" />
        </mxCell>
        <mxCell id="Hui5fMC-4kC4WE7lra_V-15" value="Distribution" style="swimlane;whiteSpace=wrap;html=1;" vertex="1" parent="1">
          <mxGeometry x="1150" y="280" width="300" height="200" as="geometry" />
        </mxCell>
        <mxCell id="Hui5fMC-4kC4WE7lra_V-22" value="Id = &quot;1.5&quot;" style="text;html=1;align=center;verticalAlign=middle;resizable=0;points=[];autosize=1;strokeColor=none;fillColor=none;" vertex="1" parent="Hui5fMC-4kC4WE7lra_V-15">
          <mxGeometry y="30" width="70" height="30" as="geometry" />
        </mxCell>
        <mxCell id="Hui5fMC-4kC4WE7lra_V-16" value="Le système doit être en mesure de redistribuer l&#39;eau &lt;br&gt;soit à la demande&amp;nbsp;de l&#39;utilisateur soit si l&#39;utilisateur&lt;br&gt;&amp;nbsp;active&amp;nbsp; le mode automatique" style="text;html=1;align=center;verticalAlign=middle;resizable=0;points=[];autosize=1;strokeColor=none;fillColor=none;" vertex="1" parent="Hui5fMC-4kC4WE7lra_V-15">
          <mxGeometry y="70" width="300" height="60" as="geometry" />
        </mxCell>
        <mxCell id="Hui5fMC-4kC4WE7lra_V-23" value="" style="endArrow=classic;html=1;rounded=0;exitX=0.5;exitY=0;exitDx=0;exitDy=0;entryX=0.25;entryY=1;entryDx=0;entryDy=0;" edge="1" parent="1" source="Hui5fMC-4kC4WE7lra_V-7" target="Hui5fMC-4kC4WE7lra_V-2">
          <mxGeometry width="50" height="50" relative="1" as="geometry">
            <mxPoint x="560" y="330" as="sourcePoint" />
            <mxPoint x="610" y="280" as="targetPoint" />
          </mxGeometry>
        </mxCell>
        <mxCell id="Hui5fMC-4kC4WE7lra_V-24" value="" style="endArrow=classic;html=1;rounded=0;exitX=0.75;exitY=0;exitDx=0;exitDy=0;entryX=0;entryY=1;entryDx=0;entryDy=0;" edge="1" parent="1" source="Hui5fMC-4kC4WE7lra_V-9" target="Hui5fMC-4kC4WE7lra_V-2">
          <mxGeometry width="50" height="50" relative="1" as="geometry">
            <mxPoint x="560" y="330" as="sourcePoint" />
            <mxPoint x="610" y="280" as="targetPoint" />
          </mxGeometry>
        </mxCell>
        <mxCell id="Hui5fMC-4kC4WE7lra_V-25" value="" style="endArrow=classic;html=1;rounded=0;exitX=0.5;exitY=0;exitDx=0;exitDy=0;entryX=0.5;entryY=1;entryDx=0;entryDy=0;" edge="1" parent="1" source="Hui5fMC-4kC4WE7lra_V-11" target="Hui5fMC-4kC4WE7lra_V-2">
          <mxGeometry width="50" height="50" relative="1" as="geometry">
            <mxPoint x="560" y="330" as="sourcePoint" />
            <mxPoint x="610" y="280" as="targetPoint" />
          </mxGeometry>
        </mxCell>
        <mxCell id="Hui5fMC-4kC4WE7lra_V-26" value="" style="endArrow=classic;html=1;rounded=0;exitX=0.25;exitY=0;exitDx=0;exitDy=0;entryX=0.75;entryY=1;entryDx=0;entryDy=0;" edge="1" parent="1" source="Hui5fMC-4kC4WE7lra_V-13" target="Hui5fMC-4kC4WE7lra_V-2">
          <mxGeometry width="50" height="50" relative="1" as="geometry">
            <mxPoint x="640" y="330" as="sourcePoint" />
            <mxPoint x="690" y="280" as="targetPoint" />
          </mxGeometry>
        </mxCell>
        <mxCell id="Hui5fMC-4kC4WE7lra_V-27" value="" style="endArrow=classic;html=1;rounded=0;exitX=0;exitY=0;exitDx=0;exitDy=0;entryX=1;entryY=1;entryDx=0;entryDy=0;" edge="1" parent="1" source="Hui5fMC-4kC4WE7lra_V-15" target="Hui5fMC-4kC4WE7lra_V-2">
          <mxGeometry width="50" height="50" relative="1" as="geometry">
            <mxPoint x="1000" y="330" as="sourcePoint" />
            <mxPoint x="1050" y="280" as="targetPoint" />
          </mxGeometry>
        </mxCell>
      </root>
    </mxGraphModel>
  </diagram>
</mxfile>
